
<svg width="116px" height="27px" viewBox="0 0 116 27" version="1.1" xmlns="http://www.w3.org/2000/svg" xmlns:xlink="http://www.w3.org/1999/xlink">
    <!-- Generator: Sketch 43.2 (39069) - http://www.bohemiancoding.com/sketch -->
    <desc>Created with Sketch.</desc>
    <defs></defs>
    <g id="Page-1" stroke="none" stroke-width="1" fill="none" fill-rule="evenodd">
        <g id="logo.r52@2x" transform="translate(-1.000000, 0.000000)" fill="#121212">
            <path d="M12.679,5.4 L12.611,5.4 L8.492,15.952 L16.592,15.952 L12.679,5.4 Z M13.309,0.974 L14.569,0.974 L22.264,21.527 C22.5892556,22.4401607 23.0355712,23.3055489 23.591,24.1 C23.9839036,24.6922355 24.6342372,25.0632187 25.344,25.1 C26.152,25.146 26.521,25.2546667 26.451,25.426 C26.48248,25.5500105 26.4441924,25.6813371 26.351,25.769 C26.1421012,25.8594122 25.9132615,25.893876 25.687,25.869 C24.2683333,25.823 22.8496667,25.7896667 21.431,25.769 C20.0123333,25.7916667 18.5936667,25.825 17.175,25.869 C16.551,25.8923333 16.251,25.7433333 16.275,25.422 C16.2296667,25.2273333 16.627,25.1186667 17.467,25.096 C18.5563333,25.0493333 19.0896667,24.567 19.067,23.649 C19.014888,23.0649424 18.9125088,22.4864663 18.761,21.92 C18.5422794,21.1592195 18.2808651,20.4113675 17.978,19.68 L16.978,16.928 L8.117,16.928 L6.156,22.439 C6.03593537,22.784738 5.97837087,23.1490874 5.986,23.515 C5.94516618,23.9941619 6.19266904,24.4518457 6.616,24.68 C7.02976637,24.9276075 7.49676141,25.0726434 7.978,25.103 C8.62466667,25.1696667 8.92466667,25.2783333 8.878,25.429 C8.90948005,25.5530105 8.87119239,25.6843371 8.778,25.772 C8.59111757,25.8602468 8.38340126,25.8948662 8.178,25.872 C7.088,25.826 5.99833333,25.7926667 4.909,25.772 C3.80833333,25.7946667 2.71333333,25.828 1.624,25.872 C1.18066667,25.872 0.970666667,25.723 0.994,25.425 C0.947333333,25.2763333 1.19133333,25.1676667 1.726,25.099 C2.11714985,25.0560322 2.4987579,24.9499925 2.856,24.785 C3.23627615,24.6006684 3.57617828,24.3426827 3.856,24.026 C4.80316363,22.7810039 5.5355866,21.3864597 6.023,19.9 L13.309,0.974 Z M52.949,24.82 C52.949,25.196 52.8086667,25.384 52.528,25.384 C52.2246667,25.4193333 52.073,25.1666667 52.073,24.626 C52.0929572,24.4560571 52.0317929,24.286628 51.9078852,24.1686206 C51.7839774,24.0506132 51.6117679,23.9977816 51.443,24.026 C51.116039,24.0549096 50.8039734,24.1759217 50.543,24.375 C50.2023333,24.597 49.769,24.8706667 49.243,25.196 C48.9722647,25.3671166 48.680057,25.5016196 48.374,25.596 C48.0012322,25.7463901 47.6199005,25.8746138 47.232,25.98 C46.1957678,26.276075 45.1226822,26.423216 44.045,26.417 C39.8883333,26.3723333 36.7586667,25.183 34.656,22.849 C32.5148138,20.5476838 31.374974,17.4903667 31.487,14.349 C31.5323333,9.809 32.8323333,6.44233333 35.387,4.249 C37.8215939,2.08967381 40.9772218,0.921477746 44.231,0.975 C45.1851931,0.958509186 46.1385497,1.04027334 47.076,1.219 C47.7300891,1.37365457 48.3644904,1.60211957 48.967,1.9 C49.3761397,2.08006795 49.7744769,2.28374416 50.16,2.51 C50.3644766,2.69249084 50.6199253,2.80800111 50.892,2.841 C51.0786113,2.85170053 51.2533534,2.74914312 51.335,2.581 C51.4325282,2.47452498 51.4974332,2.34228545 51.522,2.2 C51.4608289,1.90965528 51.6422926,1.62348378 51.931,1.555 C52.0539031,1.56302667 52.1673912,1.62361065 52.2424492,1.72126258 C52.3175071,1.81891451 52.3468588,1.94416808 52.323,2.065 C52.323,2.967 52.3683333,3.88633333 52.459,4.823 C52.5496667,5.78366667 52.595,6.756 52.595,7.74 C52.595,8.29133333 52.4813333,8.57866667 52.254,8.602 C52.1035576,8.60045365 51.9719064,8.50049623 51.93,8.356 C51.7910678,8.04619211 51.6883873,7.72137271 51.624,7.388 C51.5265508,6.79260542 51.3369442,6.21602584 51.062,5.679 C50.7117453,4.99708693 50.2512075,4.37774304 49.699,3.846 C49.0654388,3.20931073 48.3195537,2.69532811 47.499,2.33 C46.4824856,1.92222379 45.3939974,1.724255 44.299,1.748 C43.2676634,1.7496373 42.247275,1.95949718 41.299,2.365 C40.2365045,2.83913445 39.3018446,3.55889456 38.572,4.465 C37.654435,5.6193597 36.9765239,6.9452639 36.578,8.365 C36.0215869,10.3364782 35.7630624,12.3800684 35.811,14.428 C35.763875,16.2324324 36.0468553,18.0302896 36.646,19.733 C37.0885987,21.0279814 37.804828,22.2124882 38.746,23.206 C39.5377078,24.016161 40.4896273,24.6523634 41.541,25.074 C42.4149401,25.4449065 43.3526949,25.6422392 44.302,25.655 C46.722,25.6083333 48.5,24.875 49.636,23.455 C50.7606226,22.1034323 51.5595248,20.5114442 51.971,18.802 C52.255,17.8153333 52.4653333,17.357 52.602,17.427 C52.6699219,17.415122 52.7397764,17.4308184 52.7960877,17.4706117 C52.852399,17.510405 52.8905181,17.57101 52.902,17.639 C52.9425355,17.8656352 52.9592931,18.0958839 52.952,18.326 L52.952,24.826 L52.949,24.82 Z M64.743,6.089 C64.8139493,5.07640105 64.6503759,4.06108245 64.265,3.122 C63.8898878,2.54516675 63.2248201,2.22516319 62.54,2.292 C62.198853,2.30021933 61.8585784,2.2539717 61.532,2.155 C61.4656705,2.16007261 61.4008602,2.13341769 61.3572921,2.08314683 C61.313724,2.03287598 61.2965513,1.96493514 61.311,1.9 C61.311,1.648 61.533,1.522 61.977,1.522 C63.3103333,1.54533333 64.842,1.58066667 66.572,1.628 C68.154,1.60333333 69.7153333,1.56733333 71.256,1.52 C72.638979,1.4921474 74.0190456,1.658092 75.356,2.013 C76.3397061,2.30447936 77.2527246,2.79571187 78.038,3.456 C79.2774351,4.55132191 79.981416,6.12998985 79.968,7.784 C79.9226667,12.2766667 76.8423333,14.5346667 70.727,14.558 L68.467,14.558 L68.467,21.311 C68.3901386,22.3076053 68.5828773,23.3065307 69.025,24.203 C69.3641868,24.7741546 69.9848947,25.1181429 70.649,25.103 C71.0001198,25.0890747 71.3517294,25.1122025 71.698,25.172 C71.8106949,25.2406707 71.8758358,25.3663271 71.867,25.498 C71.867,25.75 71.644,25.876 71.198,25.876 C69.882,25.83 68.3486667,25.7966667 66.598,25.776 C64.8586667,25.7986667 63.3196667,25.832 61.981,25.876 C61.5343333,25.876 61.3113333,25.75 61.312,25.498 C61.2888265,25.3478775 61.3858254,25.2054377 61.534,25.172 C61.866121,25.1094683 62.204456,25.0863084 62.542,25.103 C63.2340091,25.121756 63.8865093,24.7813211 64.267,24.203 C64.6490522,23.2892857 64.8127212,22.2990544 64.745,21.311 L64.745,6.089 L64.743,6.089 Z M68.466,13.576 C69.2326667,13.6466667 69.9146667,13.682 70.512,13.682 C74.212,13.7526667 76.0386667,11.834 75.992,7.926 C75.9586667,5.83066667 75.4233333,4.34733333 74.386,3.476 C73.1886691,2.62933647 71.7402226,2.21242351 70.276,2.293 C69.7840891,2.25616488 69.2897328,2.31630307 68.821,2.47 C68.5514252,2.65416947 68.4129818,2.97785401 68.466,3.3 L68.466,13.576 L68.466,13.576 Z M90.366,6.083 C90.4368861,5.07235646 90.2732981,4.05900083 89.888,3.122 C89.5123852,2.5459287 88.8474129,2.226742 88.163,2.294 C87.8221326,2.30180591 87.4822003,2.25522134 87.156,2.156 C87.0896213,2.16082512 87.0248846,2.1338994 86.981507,2.08342364 C86.9381294,2.03294788 86.9212464,1.96489799 86.936,1.9 C86.936,1.648 87.157,1.522 87.599,1.522 C88.4603333,1.54533333 89.322,1.58066667 90.184,1.628 C91.0453333,1.60333333 91.9026667,1.56733333 92.756,1.52 L93.356,1.52 C93.6206362,1.48428957 93.8770242,1.627769 93.985,1.872 L101.654,20.343 L109.239,2.052 C109.287255,1.75625345 109.535693,1.53449327 109.835,1.52 C110.803,1.54333333 111.769667,1.57866667 112.735,1.626 C113.703,1.60266667 114.669667,1.56733333 115.635,1.52 C116.084333,1.52 116.309,1.646 116.309,1.898 C116.318194,1.95701697 116.303544,2.01726768 116.26828,2.06547497 C116.233015,2.11368225 116.18003,2.14588973 116.121,2.155 C115.7821,2.25072191 115.431125,2.29686734 115.079,2.292 C114.417428,2.22341365 113.776621,2.54694295 113.439,3.12 C112.988709,4.03850978 112.793897,5.06127221 112.875,6.081 L112.875,21.311 C112.797574,22.307969 112.99252,23.307239 113.439,24.202 C113.780224,24.7790517 114.408974,25.1240977 115.079,25.102 C115.427807,25.0872504 115.777184,25.1103858 116.121,25.171 C116.24245,25.2331071 116.316074,25.3607749 116.309,25.497 C116.309,25.749 116.085333,25.875 115.638,25.875 C114.32,25.829 112.784333,25.7956667 111.031,25.775 C109.289,25.7976667 107.747667,25.831 106.407,25.875 C105.959667,25.875 105.736,25.749 105.736,25.497 C105.712756,25.3471877 105.809229,25.2048793 105.957,25.171 C106.286453,25.108699 106.622113,25.0855385 106.957,25.102 C107.642971,25.1238263 108.289424,24.7815866 108.657,24.202 C109.053693,23.2925536 109.225209,22.3008515 109.157,21.311 L109.157,5.053 L109.087,5.053 L100.664,25.3 C100.656619,25.5228657 100.505035,25.71498 100.29,25.774 C100.058148,25.7416119 99.873155,25.5642763 99.831,25.334 L91.488,4.673 L91.42,4.673 L91.42,21.313 C91.3447833,22.3076917 91.5323865,23.3046786 91.964,24.204 C92.3112276,24.7788319 92.940693,25.1225934 93.612,25.104 C93.9588152,25.0892428 94.3062051,25.1123798 94.648,25.173 C94.7610785,25.2414128 94.8266309,25.3671191 94.818,25.499 C94.818,25.751 94.5966667,25.877 94.154,25.877 C93.064,25.831 91.9743333,25.7976667 90.885,25.777 C89.7956667,25.7996667 88.7003333,25.833 87.599,25.877 C87.1563333,25.877 86.935,25.751 86.935,25.499 C86.9118265,25.3488775 87.0088254,25.2064377 87.157,25.173 C87.4892894,25.10905 87.8279659,25.0845471 88.166,25.1 C88.8580091,25.118756 89.5105093,24.7783211 89.891,24.2 C90.2730762,23.2866438 90.4367491,22.2967306 90.369,21.309 L90.369,6.083 L90.366,6.083 Z" id="logo.r52_2x.svg"></path>
        </g>
    </g>
</svg>