<svg xmlns="http://www.w3.org/2000/svg" width="122.875" height="25.437" viewBox="0 0 122.875 25.437">
  <defs>
    <style>
      .cls-1 {
        fill: #121212;
        fill-rule: evenodd;
      }
    </style>
  </defs>
  <path id="logo.r45_2x.svg" data-name="logo.r45@2x.svg" class="cls-1" d="M11.523,4.653H11.455l-4.12,10.54h8.1Zm0.63-4.421h1.26l7.695,20.53a10.821,10.821,0,0,0,1.328,2.568,2.244,2.244,0,0,0,1.753,1Q25.4,24.4,25.3,24.659a0.351,0.351,0,0,1-.1.343,1.314,1.314,0,0,1-.664.1Q22.4,25.037,20.273,25q-2.128.034-4.256,0.1-0.936.035-.9-0.446-0.068-.291,1.192-0.326,1.634-.071,1.6-1.445a10.175,10.175,0,0,0-.306-1.727,21.033,21.033,0,0,0-.783-2.238l-1-2.749H6.961L5,21.673a3.078,3.078,0,0,0-.17,1.075,1.2,1.2,0,0,0,.63,1.163,3.026,3.026,0,0,0,1.362.423q0.97,0.1.9,0.326a0.351,0.351,0,0,1-.1.343,1.118,1.118,0,0,1-.6.1Q5.395,25.037,3.761,25q-1.651.034-3.285,0.1-0.665,0-.63-0.446-0.07-.222.732-0.326A3.647,3.647,0,0,0,1.7,24.016a3.192,3.192,0,0,0,1-.758,14.02,14.02,0,0,0,2.162-4.124ZM51.8,24.051q0,0.564-.421.563-0.455.053-.455-0.757a0.544,0.544,0,0,0-.63-0.6,1.737,1.737,0,0,0-.9.349q-0.511.332-1.3,0.82a3.626,3.626,0,0,1-.869.4,10.2,10.2,0,0,1-1.142.384,11.375,11.375,0,0,1-3.187.436q-6.237-.07-9.389-3.568a11.838,11.838,0,0,1-3.169-8.49q0.068-6.8,3.9-10.09A13.014,13.014,0,0,1,43.082.232a13.923,13.923,0,0,1,2.845.244,8.88,8.88,0,0,1,1.891.679,11.543,11.543,0,0,1,1.193.609,1.343,1.343,0,0,0,.733.331,0.463,0.463,0,0,0,.443-0.26,0.752,0.752,0,0,0,.188-0.381A0.547,0.547,0,0,1,50.782.813a0.428,0.428,0,0,1,.392.509q0,1.351.136,2.755,0.136,1.439.136,2.913,0,0.826-.341.861a0.341,0.341,0,0,1-.324-0.246,4.4,4.4,0,0,1-.307-0.967,5.793,5.793,0,0,0-.562-1.708A6.947,6.947,0,0,0,48.549,3.1a7.283,7.283,0,0,0-2.2-1.514A8.131,8.131,0,0,0,43.147,1a7.668,7.668,0,0,0-3,.616,7.343,7.343,0,0,0-2.727,2.1,11.064,11.064,0,0,0-1.994,3.891,20.508,20.508,0,0,0-.767,6.056,14.785,14.785,0,0,0,.835,5.3,9.521,9.521,0,0,0,2.1,3.469A8.151,8.151,0,0,0,40.387,24.3a7.324,7.324,0,0,0,2.761.581q3.63-.07,5.334-2.2a11.455,11.455,0,0,0,2.335-4.648q0.426-1.479.631-1.373a0.259,0.259,0,0,1,.3.211,3.3,3.3,0,0,1,.05.687v6.5ZM63.594,5.341a6.585,6.585,0,0,0-.478-2.963,1.844,1.844,0,0,0-1.725-.829,3.211,3.211,0,0,1-1.008-.137,0.21,0.21,0,0,1-.222-0.257q0-.377.666-0.377,2,0.035,4.595.105Q67.8,0.848,70.1.777a14.832,14.832,0,0,1,4.1.492,7.464,7.464,0,0,1,2.682,1.441,5.705,5.705,0,0,1,1.93,4.324q-0.068,6.732-9.241,6.767H67.318v6.746a5.558,5.558,0,0,0,.558,2.889,1.84,1.84,0,0,0,1.624.9,5.007,5.007,0,0,1,1.049.069,0.354,0.354,0,0,1,.169.326q0,0.377-.669.377-1.974-.069-4.6-0.1-2.609.034-4.617,0.1-0.669,0-.669-0.377a0.289,0.289,0,0,1,.222-0.326,4.3,4.3,0,0,1,1.008-.069,2,2,0,0,0,1.725-.9,6.354,6.354,0,0,0,.478-2.889V5.341Zm3.723,7.478q1.15,0.106,2.047.106,5.55,0.105,5.48-5.75-0.051-3.139-1.607-4.445a6.505,6.505,0,0,0-4.11-1.182,3.771,3.771,0,0,0-1.455.176,0.839,0.839,0,0,0-.355.829V12.82Zm21.9-7.485a6.562,6.562,0,0,0-.478-2.958,1.845,1.845,0,0,0-1.725-.828,3.211,3.211,0,0,1-1.008-.137,0.21,0.21,0,0,1-.222-0.257q0-.377.663-0.377,1.292,0.035,2.585.105Q90.327,0.848,91.6.777h0.6a0.6,0.6,0,0,1,.629.352L100.5,19.58l7.585-18.271a0.635,0.635,0,0,1,.605-0.532q1.452,0.035,2.9.105,1.452-.035,2.9-0.105,0.673,0,.674.377a0.225,0.225,0,0,1-.188.257,3.645,3.645,0,0,1-1.042.137,1.7,1.7,0,0,0-1.64.828,5.687,5.687,0,0,0-.564,2.958V20.548a5.506,5.506,0,0,0,.564,2.887,1.835,1.835,0,0,0,1.64.9,4.83,4.83,0,0,1,1.042.069,0.346,0.346,0,0,1,.188.326c0,0.252-.224.377-0.67,0.377q-1.979-.069-4.608-0.1-2.613.034-4.624,0.1-0.671,0-.671-0.377a0.289,0.289,0,0,1,.221-0.326,4.265,4.265,0,0,1,1-.069,1.94,1.94,0,0,0,1.7-.9,6.158,6.158,0,0,0,.5-2.888V4.306h-0.07L99.515,24.527a0.508,0.508,0,0,1-.374.473,0.543,0.543,0,0,1-.459-0.44L90.339,3.926H90.271V20.548a5.678,5.678,0,0,0,.544,2.887,1.866,1.866,0,0,0,1.648.9A4.779,4.779,0,0,1,93.5,24.4a0.353,0.353,0,0,1,.17.326q0,0.377-.664.377-1.635-.069-3.269-0.1-1.634.034-3.286,0.1-0.664,0-.664-0.377a0.289,0.289,0,0,1,.222-0.326,4.3,4.3,0,0,1,1.008-.069,2,2,0,0,0,1.725-.9,6.35,6.35,0,0,0,.478-2.888V5.335ZM118.092,3.16a2.421,2.421,0,0,1,.7-1.749,2.341,2.341,0,0,1,3.379,0,2.432,2.432,0,0,1,.7,1.749,2.439,2.439,0,0,1-.7,1.742,2.325,2.325,0,0,1-3.379,0,2.428,2.428,0,0,1-.7-1.742h0Zm0.266,0a2.13,2.13,0,0,0,.63,1.538,2,2,0,0,0,1.5.653,2.03,2.03,0,0,0,1.5-.653,2.146,2.146,0,0,0,.62-1.537,2.19,2.19,0,0,0-.62-1.555,2.057,2.057,0,0,0-1.5-.635,2.032,2.032,0,0,0-1.5.635,2.173,2.173,0,0,0-.63,1.554h0Zm3.218,1.308a0.051,0.051,0,0,1-.054.061q-0.048.007-.048-0.082A0.068,0.068,0,0,0,121.4,4.37a0.2,0.2,0,0,0-.109.044c-0.04.027-.09,0.059-0.149,0.1a0.823,0.823,0,0,1-.229.1,1.239,1.239,0,0,1-.374.048,1.415,1.415,0,0,1-1.1-.42,1.405,1.405,0,0,1-.371-0.991,1.447,1.447,0,0,1,1.491-1.568,1.166,1.166,0,0,1,.551.106,0.689,0.689,0,0,0,.225.109,0.081,0.081,0,0,0,.073-0.075,0.067,0.067,0,0,1,.05-0.072,0.047,0.047,0,0,1,.046.058,2.834,2.834,0,0,0,.02.328c0.009,0.112.013,0.225,0.013,0.342,0,0.066-.013.1-0.04,0.1s-0.056-.038-0.076-0.14a0.593,0.593,0,0,0-.06-0.2,1.126,1.126,0,0,0-.162-0.219,0.687,0.687,0,0,0-.259-0.174,0.925,0.925,0,0,0-.375-0.072,0.864,0.864,0,0,0-.67.325,1.7,1.7,0,0,0-.322,1.162,1.624,1.624,0,0,0,.1.615,1.165,1.165,0,0,0,.245.407,0.914,0.914,0,0,0,.643.294,0.849,0.849,0,0,0,.375-0.079,0.665,0.665,0,0,0,.252-0.181,1.445,1.445,0,0,0,.272-0.547,0.2,0.2,0,0,1,.074-0.161c0.032,0,.045.035,0.041,0.106V4.469Z" transform="translate(0 -0.219)"/>
</svg>
