<svg xmlns="http://www.w3.org/2000/svg" width="115.312" height="26.406" viewBox="0 0 115.312 26.406">
  <defs>
    <style>
      .cls-1 {
        fill: #121212;
        fill-rule: evenodd;
      }
    </style>
  </defs>
  <path id="logo.r52_2x.svg" data-name="logo.r52@2x.svg" class="cls-1" d="M12.023,4.4H11.955L7.836,14.952h8.1Zm0.63-4.426h1.26l7.695,20.553A10.836,10.836,0,0,0,22.935,23.1a2.243,2.243,0,0,0,1.753,1q1.212,0.069,1.107.326a0.352,0.352,0,0,1-.1.343,1.311,1.311,0,0,1-.664.1q-2.128-.069-4.256-0.1-2.128.034-4.256,0.1-0.936.035-.9-0.447-0.068-.292,1.192-0.326,1.634-.07,1.6-1.447a10.2,10.2,0,0,0-.306-1.729,21.073,21.073,0,0,0-.783-2.24l-1-2.752H7.461L5.5,21.439a3.084,3.084,0,0,0-.17,1.076,1.207,1.207,0,0,0,.63,1.165,3.023,3.023,0,0,0,1.362.423q0.97,0.1.9,0.326a0.352,0.352,0,0,1-.1.343,1.116,1.116,0,0,1-.6.1q-1.635-.069-3.269-0.1-1.651.034-3.285,0.1-0.665,0-.63-0.447-0.07-.223.732-0.326A3.644,3.644,0,0,0,2.2,23.785a3.193,3.193,0,0,0,1-.759A14.039,14.039,0,0,0,5.367,18.9ZM52.293,23.82q0,0.564-.421.564-0.455.053-.455-0.758a0.544,0.544,0,0,0-.63-0.6,1.736,1.736,0,0,0-.9.349q-0.511.333-1.3,0.821a3.627,3.627,0,0,1-.869.4,10.2,10.2,0,0,1-1.142.384,11.362,11.362,0,0,1-3.187.437Q37.154,25.35,34,21.849a11.858,11.858,0,0,1-3.169-8.5q0.068-6.81,3.9-10.1A13.006,13.006,0,0,1,43.575-.025,13.908,13.908,0,0,1,46.42.219,8.874,8.874,0,0,1,48.311.9a11.546,11.546,0,0,1,1.193.61,1.342,1.342,0,0,0,.732.331,0.463,0.463,0,0,0,.443-0.26A0.754,0.754,0,0,0,50.866,1.2,0.547,0.547,0,0,1,51.275.555a0.428,0.428,0,0,1,.392.51q0,1.353.136,2.758,0.136,1.441.136,2.917,0,0.827-.341.862a0.341,0.341,0,0,1-.324-0.246,4.409,4.409,0,0,1-.306-0.968,5.809,5.809,0,0,0-.562-1.709,6.958,6.958,0,0,0-1.363-1.833,7.282,7.282,0,0,0-2.2-1.516,8.122,8.122,0,0,0-3.2-.582,7.661,7.661,0,0,0-3,.617,7.345,7.345,0,0,0-2.727,2.1,11.08,11.08,0,0,0-1.994,3.9,20.551,20.551,0,0,0-.767,6.063,14.817,14.817,0,0,0,.835,5.305,9.533,9.533,0,0,0,2.1,3.473,8.149,8.149,0,0,0,2.795,1.868,7.319,7.319,0,0,0,2.761.581q3.63-.07,5.334-2.2a11.472,11.472,0,0,0,2.335-4.653q0.426-1.48.631-1.375a0.259,0.259,0,0,1,.3.212,3.307,3.307,0,0,1,.05.687v6.5ZM64.087,5.089a6.6,6.6,0,0,0-.478-2.967,1.844,1.844,0,0,0-1.725-.83,3.209,3.209,0,0,1-1.008-.137A0.21,0.21,0,0,1,60.655.9q0-.378.666-0.378,2,0.035,4.595.106Q68.289,0.591,70.6.52a14.817,14.817,0,0,1,4.1.493,7.461,7.461,0,0,1,2.682,1.443,5.714,5.714,0,0,1,1.93,4.328q-0.068,6.739-9.241,6.774H67.811v6.753a5.57,5.57,0,0,0,.558,2.892,1.84,1.84,0,0,0,1.624.9,5,5,0,0,1,1.049.069,0.354,0.354,0,0,1,.169.326q0,0.378-.669.378-1.974-.069-4.6-0.1-2.609.034-4.617,0.1-0.67,0-.669-0.378a0.289,0.289,0,0,1,.222-0.326,4.3,4.3,0,0,1,1.008-.069,2,2,0,0,0,1.725-.9,6.368,6.368,0,0,0,.478-2.892V5.089Zm3.723,7.487q1.15,0.106,2.046.106,5.55,0.106,5.48-5.756Q75.286,3.783,73.73,2.476a6.5,6.5,0,0,0-4.11-1.183,3.767,3.767,0,0,0-1.455.177,0.84,0.84,0,0,0-.355.83V12.576Zm21.9-7.493a6.576,6.576,0,0,0-.478-2.961,1.844,1.844,0,0,0-1.725-.828A3.208,3.208,0,0,1,86.5,1.156,0.21,0.21,0,0,1,86.28.9q0-.378.663-0.378,1.292,0.035,2.585.106Q90.82,0.591,92.1.52h0.6a0.6,0.6,0,0,1,.629.352l7.669,18.471,7.585-18.291A0.635,0.635,0,0,1,109.179.52q1.452,0.035,2.9.106,1.452-.035,2.9-0.106,0.674,0,.674.378a0.225,0.225,0,0,1-.188.257,3.648,3.648,0,0,1-1.042.137,1.7,1.7,0,0,0-1.64.828,5.7,5.7,0,0,0-.564,2.961v15.23a5.518,5.518,0,0,0,.564,2.891,1.835,1.835,0,0,0,1.64.9,4.827,4.827,0,0,1,1.042.069,0.346,0.346,0,0,1,.188.326q0,0.378-.671.378-1.977-.069-4.607-0.1-2.613.034-4.624,0.1-0.671,0-.671-0.378a0.289,0.289,0,0,1,.221-0.326,4.257,4.257,0,0,1,1-.069,1.94,1.94,0,0,0,1.7-.9,6.17,6.17,0,0,0,.5-2.891V4.053h-0.07L100.008,24.3a0.509,0.509,0,0,1-.374.474,0.543,0.543,0,0,1-.459-0.44L90.832,3.673H90.764v16.64a5.69,5.69,0,0,0,.544,2.891,1.865,1.865,0,0,0,1.648.9,4.771,4.771,0,0,1,1.036.069,0.354,0.354,0,0,1,.17.326q0,0.378-.664.378-1.635-.069-3.269-0.1-1.634.034-3.286,0.1-0.664,0-.664-0.378a0.289,0.289,0,0,1,.222-0.326A4.3,4.3,0,0,1,87.51,24.1a2,2,0,0,0,1.725-.9,6.363,6.363,0,0,0,.478-2.891V5.083Z" transform="translate(-0.344)"/>
</svg>
