<svg xmlns="http://www.w3.org/2000/svg" width="123" height="26" viewBox="0 0 123 26">
  <defs>
    <style>
      .cls-1 {
        fill: #121212;
        fill-rule: evenodd;
      }
    </style>
  </defs>
  <path id="logo.r47_2x.svg" data-name="logo.r47@2x.svg" class="cls-1" d="M11.536,4.394H11.468L7.344,14.945h8.112Zm0.63-4.425h1.261l7.7,20.552a10.832,10.832,0,0,0,1.329,2.571,2.246,2.246,0,0,0,1.755,1q1.213,0.069,1.108.326a0.352,0.352,0,0,1-.1.343,1.315,1.315,0,0,1-.665.1q-2.131-.069-4.26-0.1-2.131.034-4.26,0.1-0.937.035-.9-0.447-0.068-.291,1.193-0.326,1.636-.071,1.6-1.447a10.175,10.175,0,0,0-.307-1.729,21.057,21.057,0,0,0-.784-2.24L15.83,15.927H6.969l-1.96,5.5a3.081,3.081,0,0,0-.17,1.076,1.206,1.206,0,0,0,.63,1.164,3.028,3.028,0,0,0,1.364.423q0.971,0.1.9,0.326a0.352,0.352,0,0,1-.1.343,1.119,1.119,0,0,1-.6.1Q5.4,24.8,3.765,24.765q-1.653.034-3.289,0.1-0.666,0-.63-0.447Q-0.225,24.2.578,24.1A3.651,3.651,0,0,0,1.7,23.778a3.2,3.2,0,0,0,1.006-.759,14.034,14.034,0,0,0,2.164-4.128ZM51.849,23.813q0,0.564-.421.564-0.455.053-.455-0.758a0.544,0.544,0,0,0-.631-0.6,1.739,1.739,0,0,0-.9.349q-0.512.332-1.3,0.821a3.632,3.632,0,0,1-.87.4,10.206,10.206,0,0,1-1.143.384,11.386,11.386,0,0,1-3.19.437q-6.243-.07-9.4-3.572a11.85,11.85,0,0,1-3.173-8.5q0.068-6.81,3.905-10.1A13.029,13.029,0,0,1,43.122-.032,13.937,13.937,0,0,1,45.97.212a8.887,8.887,0,0,1,1.893.68,11.551,11.551,0,0,1,1.194.61,1.344,1.344,0,0,0,.733.331,0.463,0.463,0,0,0,.443-0.26,0.753,0.753,0,0,0,.188-0.382A0.548,0.548,0,0,1,50.83.549a0.428,0.428,0,0,1,.392.51q0,1.353.136,2.758,0.136,1.441.136,2.916,0,0.827-.341.862a0.341,0.341,0,0,1-.324-0.246,4.4,4.4,0,0,1-.307-0.968,5.8,5.8,0,0,0-.563-1.709A6.957,6.957,0,0,0,48.6,2.838a7.29,7.29,0,0,0-2.2-1.516A8.139,8.139,0,0,0,43.187.741a7.677,7.677,0,0,0-3,.617,7.351,7.351,0,0,0-2.73,2.1,11.076,11.076,0,0,0-2,3.9,20.528,20.528,0,0,0-.768,6.063,14.8,14.8,0,0,0,.836,5.305,9.531,9.531,0,0,0,2.1,3.472,8.16,8.16,0,0,0,2.8,1.868,7.333,7.333,0,0,0,2.764.582q3.633-.07,5.339-2.2a11.467,11.467,0,0,0,2.337-4.653q0.426-1.48.631-1.375a0.259,0.259,0,0,1,.3.212,3.306,3.306,0,0,1,.05.687v6.5ZM63.656,5.083a6.593,6.593,0,0,0-.479-2.967,1.846,1.846,0,0,0-1.727-.83,3.216,3.216,0,0,1-1.009-.137A0.21,0.21,0,0,1,60.22.892q0-.378.667-0.378,2,0.035,4.6.106,2.376-.035,4.685-0.106a14.849,14.849,0,0,1,4.1.493A7.472,7.472,0,0,1,76.96,2.449a5.711,5.711,0,0,1,1.932,4.328q-0.068,6.739-9.251,6.774H67.384V20.3a5.565,5.565,0,0,0,.559,2.892,1.842,1.842,0,0,0,1.626.9,5,5,0,0,1,1.05.069,0.354,0.354,0,0,1,.169.326q0,0.378-.67.378-1.976-.069-4.6-0.1-2.612.034-4.622,0.1-0.67,0-.67-0.378a0.289,0.289,0,0,1,.222-0.326,4.3,4.3,0,0,1,1.009-.069,2,2,0,0,0,1.727-.9,6.361,6.361,0,0,0,.479-2.892V5.083Zm3.727,7.487q1.152,0.106,2.049.106,5.556,0.106,5.486-5.756Q74.867,3.776,73.31,2.47A6.512,6.512,0,0,0,69.2,1.286a3.776,3.776,0,0,0-1.456.177,0.84,0.84,0,0,0-.355.83V12.569ZM89.31,5.076a6.57,6.57,0,0,0-.479-2.961A1.847,1.847,0,0,0,87.1,1.286,3.216,3.216,0,0,1,86.1,1.149,0.21,0.21,0,0,1,85.873.892q0-.378.664-0.378,1.293,0.035,2.588.106Q90.418,0.584,91.7.514h0.6a0.6,0.6,0,0,1,.63.352L100.6,19.337l7.592-18.29A0.636,0.636,0,0,1,108.8.514q1.454,0.035,2.907.106,1.454-.035,2.907-0.106,0.675,0,.675.378a0.224,0.224,0,0,1-.188.257,3.651,3.651,0,0,1-1.043.137,1.7,1.7,0,0,0-1.642.828,5.7,5.7,0,0,0-.565,2.961v15.23a5.515,5.515,0,0,0,.565,2.891,1.838,1.838,0,0,0,1.642.9,4.823,4.823,0,0,1,1.043.069,0.345,0.345,0,0,1,.188.326q0,0.378-.671.378-1.978-.069-4.612-0.1-2.616.034-4.63,0.1-0.671,0-.671-0.378a0.288,0.288,0,0,1,.221-0.326,4.259,4.259,0,0,1,1-.069,1.942,1.942,0,0,0,1.7-.9,6.168,6.168,0,0,0,.5-2.891V4.046h-0.071L99.616,24.289a0.509,0.509,0,0,1-.374.474,0.543,0.543,0,0,1-.459-0.44L90.43,3.666H90.362v16.64a5.684,5.684,0,0,0,.544,2.891,1.867,1.867,0,0,0,1.65.9,4.772,4.772,0,0,1,1.037.069,0.353,0.353,0,0,1,.17.326q0,0.378-.665.378-1.637-.069-3.273-0.1-1.636.034-3.289,0.1-0.665,0-.665-0.378a0.289,0.289,0,0,1,.222-0.326A4.3,4.3,0,0,1,87.1,24.1a2,2,0,0,0,1.727-.9,6.358,6.358,0,0,0,.479-2.891V5.076Zm28.9-2.177a2.425,2.425,0,0,1,.7-1.751,2.343,2.343,0,0,1,3.383,0A2.437,2.437,0,0,1,123,2.9a2.444,2.444,0,0,1-.7,1.744,2.328,2.328,0,0,1-3.383,0,2.432,2.432,0,0,1-.7-1.744h0Zm0.266,0a2.134,2.134,0,0,0,.63,1.539,2.009,2.009,0,0,0,1.5.653,2.033,2.033,0,0,0,1.507-.653,2.15,2.15,0,0,0,.621-1.539,2.195,2.195,0,0,0-.621-1.556,2.061,2.061,0,0,0-1.507-.636,2.037,2.037,0,0,0-1.5.636,2.177,2.177,0,0,0-.63,1.556h0Zm3.221,1.31a0.051,0.051,0,0,1-.054.062q-0.048.007-.048-0.082a0.068,0.068,0,0,0-.076-0.079,0.2,0.2,0,0,0-.109.044q-0.06.041-.15,0.1a0.8,0.8,0,0,1-.229.1,1.239,1.239,0,0,1-.374.048,1.415,1.415,0,0,1-1.1-.421,1.409,1.409,0,0,1-.372-0.992,1.45,1.45,0,0,1,1.494-1.569,1.16,1.16,0,0,1,.55.106,0.7,0.7,0,0,0,.226.109,0.081,0.081,0,0,0,.073-0.075,0.067,0.067,0,0,1,.05-0.072,0.047,0.047,0,0,1,.046.058,2.841,2.841,0,0,0,.02.328c0.009,0.112.013,0.226,0.013,0.342q0,0.1-.039.1c-0.031.009-.057-0.038-0.077-0.14a0.594,0.594,0,0,0-.06-0.2,1.126,1.126,0,0,0-.162-0.219,0.683,0.683,0,0,0-.26-0.174,0.918,0.918,0,0,0-.375-0.072,0.865,0.865,0,0,0-.671.325,1.708,1.708,0,0,0-.322,1.163,1.628,1.628,0,0,0,.1.616,1.181,1.181,0,0,0,.245.407,0.916,0.916,0,0,0,.644.294,0.848,0.848,0,0,0,.375-0.079,0.66,0.66,0,0,0,.253-0.181,1.447,1.447,0,0,0,.272-0.547,0.208,0.208,0,0,1,.074-0.161c0.032,0,.046.035,0.041,0.106V4.209Z"/>
</svg>
